<?xml version="1.0" standalone="no"?>
<!DOCTYPE svg PUBLIC "-//W3C//DTD SVG 20010904//EN"
 "http://www.w3.org/TR/2001/REC-SVG-20010904/DTD/svg10.dtd">
<svg version="1.0" xmlns="http://www.w3.org/2000/svg"
 width="700.000000pt" height="700.000000pt" viewBox="0 0 700.000000 700.000000"
 preserveAspectRatio="xMidYMid meet">
<metadata>
Created by potrace 1.16, written by Peter Selinger 2001-2019
</metadata>
<g transform="translate(0.000000,700.000000) scale(0.100000,-0.100000)"
fill="#000000" stroke="none">
<path d="M0 3500 l0 -3500 1750 0 1750 0 0 148 c0 81 3 165 7 186 6 38 5 39
-18 32 -13 -3 -46 -9 -74 -13 -41 -5 -56 -13 -80 -41 -31 -35 -31 -35 -148
-44 -109 -8 -120 -7 -169 13 -73 31 -77 37 -16 26 29 -5 107 -10 173 -12 119
-3 120 -3 137 23 9 14 15 29 12 34 -6 9 -4 10 56 12 48 1 102 28 97 49 -1 6 5
12 13 12 29 1 40 16 40 55 0 28 -5 40 -17 43 -14 4 -14 5 3 6 27 1 57 44 42
59 -6 6 -6 12 1 16 16 10 13 53 -4 60 -8 3 -20 18 -26 33 -9 24 -7 29 20 50
29 23 30 26 16 47 -9 13 -13 31 -9 39 4 12 -2 20 -19 26 -38 15 -47 61 -11 61
8 0 14 5 14 10 0 6 -7 10 -15 10 -8 0 -15 4 -15 9 0 5 9 7 20 4 57 -15 99
-129 67 -185 -15 -25 -14 -29 6 -59 60 -88 259 -133 411 -94 32 9 88 30 125
49 46 23 72 31 86 25 36 -14 52 -9 89 26 21 19 42 35 47 35 6 0 8 4 5 9 -8 12
21 34 33 26 7 -3 8 0 5 9 -7 17 15 22 32 7 13 -12 60 -22 67 -14 15 14 57 12
57 -3 0 -8 -4 -13 -9 -10 -5 3 -11 0 -14 -8 -3 -8 1 -17 9 -20 24 -9 31 -7 14
5 -12 9 -10 10 9 6 13 -3 34 -2 47 3 17 7 22 6 18 -3 -2 -7 3 -21 12 -32 16
-20 16 -20 9 0 -4 11 -9 39 -11 62 -2 23 -8 53 -13 66 -9 24 -2 27 40 18 19
-4 50 -43 55 -71 8 -35 -8 -54 -38 -44 -13 4 -18 0 -18 -14 0 -47 72 -63 125
-28 40 27 42 74 6 152 -37 79 -38 88 -7 128 23 31 56 90 56 101 0 12 -18 2
-56 -33 -58 -52 -79 -69 -106 -82 -13 -7 -35 -24 -50 -38 -26 -24 -36 -26
-153 -30 l-125 -4 14 33 c8 19 12 46 9 60 -3 16 1 32 11 42 18 17 22 82 6 92
-8 5 -8 11 -1 19 6 7 7 23 4 36 -4 16 -3 21 5 16 16 -10 15 -56 0 -56 -10 0
-10 -2 0 -9 14 -9 19 -84 7 -120 -4 -12 -2 -21 4 -21 12 0 26 46 23 72 -2 13
8 18 45 23 67 8 173 33 146 34 -26 1 -32 21 -7 21 9 0 32 7 51 17 30 14 36 14
44 2 5 -8 9 -9 9 -3 0 15 38 25 46 12 4 -5 20 -8 36 -6 21 4 27 1 24 -9 -4 -9
3 -13 22 -12 15 0 22 3 15 5 -17 7 0 47 42 99 26 31 47 46 78 53 23 6 52 20
64 31 28 26 75 95 97 141 9 19 34 46 55 60 45 27 61 55 61 108 0 37 -40 112
-60 112 -5 0 -14 19 -21 42 -9 34 -8 51 5 90 9 28 13 62 9 79 -5 25 0 36 28
65 18 19 36 34 40 34 3 0 9 -17 12 -38 5 -25 20 -51 47 -79 25 -27 43 -57 49
-84 6 -24 23 -55 43 -76 33 -34 33 -35 34 -133 1 -112 16 -150 60 -150 26 0
81 46 69 58 -4 4 -12 -1 -19 -11 -7 -9 -20 -17 -29 -17 -12 0 -14 8 -10 32 6
41 30 69 42 50 7 -11 9 -11 14 2 3 8 -6 36 -20 63 -53 102 -61 119 -68 161 -4
23 -18 55 -31 71 -13 15 -26 48 -30 72 -4 24 -18 68 -32 98 -23 51 -23 56 -9
86 9 18 18 70 22 116 9 112 26 167 79 258 74 128 116 214 116 240 0 24 1 24
68 18 37 -4 110 -12 162 -19 52 -6 127 -11 165 -11 39 0 72 -2 75 -6 3 -3 24
-19 47 -34 50 -34 140 -55 277 -62 85 -5 113 -3 176 15 41 12 109 25 150 29
89 8 130 28 160 76 29 47 21 94 -21 129 -38 32 -67 40 -125 33 -79 -8 -76 -27
2 -21 62 5 71 4 92 -16 13 -12 22 -29 20 -37 -4 -18 -122 -67 -143 -59 -8 3
-15 14 -15 25 0 10 -7 21 -15 25 -8 3 -15 15 -15 27 0 21 -1 21 -19 5 -11 -10
-22 -38 -26 -67 -9 -62 -23 -69 -138 -69 -97 0 -133 15 -211 90 -215 204 -208
200 -381 200 -127 0 -132 1 -176 29 -25 15 -70 57 -100 91 -117 137 -121 140
-183 156 -85 22 -200 23 -224 1 -39 -35 -41 -13 -13 101 11 43 22 94 25 116 4
21 8 42 11 46 5 8 31 100 45 160 5 19 13 51 19 70 5 19 26 103 45 185 20 83
50 210 68 284 22 97 28 136 20 139 -7 2 -12 9 -12 16 0 7 -14 17 -32 22 -41
12 -140 155 -227 328 -69 138 -101 224 -140 380 -22 90 -31 110 -47 112 -10 1
-48 9 -84 18 -36 8 -72 16 -81 16 -8 0 -38 -28 -66 -63 -135 -165 -326 -333
-527 -462 -55 -35 -58 -36 -110 -26 -62 11 -93 6 -100 -18 -21 -70 -136 -554
-136 -570 0 -11 -5 -23 -11 -27 -8 -4 -8 -8 0 -13 7 -5 5 -24 -7 -61 l-17 -55
-45 -2 c-122 -5 -172 -21 -249 -80 -3 -2 -6 -22 -7 -46 -1 -33 -7 -45 -25 -55
-28 -14 -57 -9 -122 24 -71 35 -82 32 -55 -15 12 -22 26 -37 31 -34 4 2 43 6
87 7 l78 3 7 -34 c7 -37 9 -38 54 -22 24 9 29 14 19 20 -9 6 -6 9 12 9 43 0
69 -11 63 -26 -3 -8 0 -14 6 -14 6 0 11 4 11 10 0 5 9 14 21 20 19 11 20 10 9
-10 -10 -18 -9 -25 3 -37 13 -13 13 -22 2 -62 -7 -25 -16 -64 -20 -86 -10 -66
-16 -70 -72 -56 -26 7 -57 17 -68 21 -11 4 -66 19 -122 32 l-102 23 -10 47
c-21 95 -24 128 -12 128 6 0 11 4 11 9 0 5 -8 8 -17 7 -14 -1 -19 8 -21 39 -1
22 -6 49 -11 60 -5 11 -19 67 -31 125 -12 58 -27 119 -35 135 -7 17 -16 59
-20 95 -3 36 -12 92 -19 125 -8 33 -22 96 -31 140 -27 129 -43 202 -75 333
-16 68 -26 129 -23 137 3 8 1 15 -5 15 -6 0 -13 24 -17 53 -8 54 -22 93 -32
83 -4 -3 -15 1 -25 11 -11 9 -18 11 -18 5 0 -46 -205 63 -385 206 -94 74 -277
262 -254 262 5 0 21 -15 36 -32 75 -89 235 -224 252 -214 4 3 26 -4 47 -15 23
-12 29 -17 14 -13 -14 3 -31 11 -38 17 -7 5 -15 7 -18 5 -9 -10 85 -69 216
-135 68 -35 126 -60 128 -54 2 5 9 8 15 6 7 -2 25 -6 41 -10 20 -4 27 -11 24
-23 -7 -24 15 -42 52 -42 20 0 30 5 30 15 0 11 11 15 40 15 29 0 40 -4 40 -15
0 -11 11 -15 40 -15 29 0 40 4 40 15 0 12 19 15 113 15 l113 0 17 153 c21 197
26 331 32 972 3 292 8 572 11 623 l5 92 -1785 0 -1786 0 0 -3500z m1270 2647
c0 -15 62 -140 74 -149 5 -3 11 -32 14 -62 4 -52 6 -55 18 -37 34 48 183 117
199 92 5 -10 77 4 107 20 33 18 32 2 -1 -37 -31 -34 -50 -71 -55 -103 -2 -8
-8 -17 -14 -19 -7 -2 -12 -10 -12 -17 0 -7 -12 -20 -26 -30 -26 -17 -26 -17
-7 -38 10 -12 37 -49 58 -81 22 -32 44 -65 50 -72 18 -25 -4 -26 -42 -3 -21
13 -38 22 -38 21 0 -2 -7 -1 -15 2 -8 2 -32 10 -52 16 -21 6 -38 16 -38 21 0
6 -11 21 -25 35 -14 14 -25 31 -24 37 2 19 -13 57 -22 57 -21 0 -6 17 37 43
26 15 44 30 41 34 -10 9 -127 -67 -127 -83 0 -8 -4 -14 -10 -14 -5 0 -7 12 -4
28 7 38 -6 51 -53 56 -23 2 -49 9 -60 15 -15 10 -13 11 13 6 33 -6 69 19 47
33 -5 4 -10 28 -9 54 1 25 -3 44 -7 41 -5 -3 -6 -31 -3 -62 4 -56 4 -58 -19
-54 -25 5 -78 -24 -69 -38 3 -5 -1 -9 -10 -9 -26 0 -46 12 -46 27 0 8 5 11 10
8 18 -11 42 17 35 42 -3 13 -1 23 5 23 6 0 9 4 6 9 -3 5 5 33 18 62 14 30 28
75 31 101 4 26 11 45 16 42 5 -3 9 -11 9 -17z m754 -537 c-35 -170 -140 -424
-266 -640 -40 -69 -46 -75 -93 -90 -80 -24 -96 -37 -89 -67 5 -18 4 -24 -5
-19 -18 11 -13 51 9 71 11 10 20 22 20 27 0 4 19 25 42 46 132 118 288 398
353 632 34 122 35 124 40 119 2 -3 -3 -38 -11 -79z m-518 28 c4 -6 3 -9 -2 -6
-21 13 -32 -18 -18 -51 7 -18 17 -30 22 -27 4 2 9 -4 9 -16 2 -15 -2 -18 -15
-13 -39 16 -49 14 -85 -20 -31 -28 -39 -32 -44 -19 -5 15 -7 15 -15 0 -5 -10
-22 -16 -42 -16 -19 0 -39 -7 -46 -15 -9 -11 -28 -14 -78 -10 -36 2 -68 8 -71
13 -3 5 -18 12 -33 16 -30 7 -42 24 -51 74 -4 21 -3 31 3 27 6 -3 10 -16 10
-27 0 -27 28 -58 52 -58 10 0 18 -5 18 -11 0 -8 13 -9 39 -5 22 3 41 2 43 -3
2 -5 14 -4 28 1 14 6 40 12 59 14 19 2 39 8 45 14 5 5 20 10 31 10 20 0 85 27
85 35 0 2 -4 15 -10 29 -13 36 6 76 36 76 13 0 26 -5 30 -12z m618 -482 c31
-13 67 -69 53 -83 -4 -3 -11 5 -16 18 -10 23 -10 23 -11 -6 0 -16 -3 -40 -6
-52 -4 -14 -2 -23 5 -23 6 0 11 12 12 28 0 15 3 21 6 13 8 -19 -18 -123 -34
-139 -7 -7 -13 -19 -13 -27 0 -13 -29 -29 -37 -21 -3 2 5 14 17 26 11 11 18
26 14 31 -4 8 -9 7 -15 -2 -6 -10 -9 -6 -9 13 0 15 -3 29 -8 32 -4 2 -6 -14
-5 -37 l3 -42 -13 50 c-8 28 -26 75 -40 106 -33 69 -33 74 -2 104 27 28 51 31
99 11z m-388 -1153 c6 -51 3 -70 -15 -107 -12 -26 -21 -66 -21 -91 0 -25 -4
-45 -10 -45 -5 0 -10 -7 -10 -15 0 -9 -18 -33 -40 -55 -22 -22 -40 -46 -40
-54 0 -8 -4 -17 -10 -21 -5 -3 -7 -12 -3 -20 3 -8 0 -15 -6 -15 -6 0 -19 -7
-28 -16 -28 -24 -120 -83 -124 -79 -2 2 -4 -10 -3 -26 0 -16 4 -32 7 -36 4 -3
7 -22 8 -42 l1 -36 9 36 c4 20 22 61 40 90 37 64 29 55 59 64 22 7 23 6 11 -9
-12 -14 -12 -16 3 -10 10 4 14 13 11 24 -3 10 0 20 9 23 10 4 13 1 9 -9 -3 -9
0 -13 8 -10 8 2 26 7 41 10 19 4 37 23 63 66 35 58 36 62 21 85 -22 33 -20 49
12 103 23 40 27 58 27 122 l-1 75 21 -90 c16 -67 25 -89 36 -86 42 12 76 11
94 -3 13 -10 14 -14 4 -11 -12 5 -15 0 -11 -23 3 -21 -3 -37 -22 -57 -14 -16
-29 -25 -33 -22 -10 11 -33 -14 -33 -35 0 -11 14 -36 30 -55 17 -18 30 -45 30
-58 0 -13 6 -37 13 -52 l12 -27 5 39 6 40 4 -46 c4 -37 2 -45 -9 -41 -10 4
-13 1 -8 -11 3 -8 9 -32 13 -51 8 -45 -9 -48 -27 -4 -7 17 -15 26 -17 19 -2
-6 3 -23 12 -37 9 -13 14 -29 11 -35 -4 -5 -1 -16 5 -24 6 -8 9 -19 5 -25 -3
-5 -3 -16 1 -22 5 -7 7 -27 5 -45 -1 -18 2 -33 7 -33 15 0 24 52 18 97 l-6 38
16 -35 c18 -38 20 -78 9 -155 -4 -28 -2 -66 3 -85 9 -32 10 -30 12 35 3 117
16 128 17 15 2 -125 18 -183 66 -242 33 -40 76 -152 63 -165 -6 -6 -7 -3 -25
63 -10 38 -72 130 -98 147 -7 4 -13 21 -13 37 0 34 -15 40 -25 11 -3 -11 5
-38 20 -65 14 -25 22 -46 18 -46 -4 0 3 -9 15 -20 12 -12 27 -41 33 -66 7 -25
20 -51 30 -57 11 -7 19 -17 19 -24 0 -20 149 -163 170 -163 5 0 10 -4 10 -9 0
-4 19 -21 43 -37 23 -16 48 -35 55 -41 7 -7 19 -13 25 -12 9 0 8 2 0 6 -7 2
-13 12 -13 22 0 19 -56 81 -74 81 -19 0 18 20 38 20 15 0 16 -3 6 -15 -10 -12
-10 -15 4 -15 9 0 16 -5 16 -10 0 -10 85 -53 177 -89 46 -18 62 -19 158 -11
105 8 109 9 174 53 36 24 102 66 146 93 44 27 94 63 111 81 26 27 37 32 64 29
38 -4 123 21 115 35 -3 5 -1 18 5 29 14 26 69 27 101 1 14 -10 36 -21 49 -23
19 -2 26 -10 28 -30 3 -22 0 -26 -17 -21 -26 7 -28 23 -3 24 12 0 10 3 -7 10
-13 5 -24 8 -25 7 -13 -34 -27 -43 -70 -46 -27 -2 -46 1 -46 7 0 15 -20 14
-53 -1 -21 -10 -26 -18 -22 -35 9 -39 -18 -53 -98 -51 -67 2 -76 0 -135 -36
-39 -23 -62 -43 -59 -51 3 -7 0 -18 -6 -24 -6 -6 -7 -11 -3 -11 4 0 17 12 28
26 17 21 89 74 101 74 13 0 -11 -72 -34 -107 -30 -43 -36 -63 -19 -63 6 0 10
4 10 9 0 5 8 11 18 13 9 3 31 31 47 63 22 42 39 62 62 71 42 18 48 18 33 -1
-10 -13 -9 -19 6 -36 10 -12 28 -26 39 -31 18 -11 19 -10 3 14 -11 16 -13 30
-7 39 8 13 13 5 10 -15 -1 -5 5 -6 14 -3 8 4 15 1 16 -6 0 -8 2 -8 6 1 3 7 -5
24 -18 38 -21 23 -22 25 -6 41 11 12 34 17 69 18 48 0 53 -2 76 -35 21 -32 23
-43 20 -130 -3 -105 -23 -160 -68 -191 -46 -32 -63 -31 -100 4 -30 27 -44 32
-90 34 -30 1 -49 0 -42 -3 6 -3 12 -14 12 -24 0 -11 8 -24 18 -29 10 -5 30
-27 45 -48 23 -34 25 -44 20 -95 -7 -68 -15 -73 -106 -63 -124 13 -158 35
-293 186 -21 24 -43 33 -134 59 -25 7 -74 24 -110 38 -85 32 -130 38 -155 18
-19 -14 -16 -15 43 -16 40 0 61 -4 57 -10 -3 -5 -15 -10 -25 -10 -10 0 -21 -4
-24 -9 -3 -5 0 -9 7 -8 33 1 48 -4 45 -15 -6 -17 37 -58 60 -58 11 0 25 -7 32
-15 7 -8 19 -15 27 -15 7 0 25 -7 38 -16 13 -9 28 -13 33 -11 4 3 14 1 22 -4
12 -8 12 -12 2 -16 -8 -3 5 -16 31 -34 60 -39 85 -99 42 -99 -7 0 -15 -5 -17
-11 -5 -16 -88 -1 -85 14 2 13 -7 13 -36 2 -15 -6 -16 -4 -7 19 12 34 -3 34
-29 0 -19 -24 -25 -26 -73 -21 -45 5 -48 4 -20 -4 38 -11 39 -15 10 -41 -16
-14 -18 -18 -6 -14 9 2 33 8 53 12 26 5 33 9 23 15 -10 7 -9 9 5 9 10 0 20 -7
23 -15 4 -8 14 -15 24 -15 10 0 25 -6 32 -14 8 -7 30 -21 48 -31 19 -10 41
-26 48 -36 7 -10 18 -24 25 -31 41 -46 60 -70 50 -64 -6 3 -14 2 -18 -4 -3 -5
-1 -10 4 -10 6 0 12 -8 12 -17 1 -16 2 -16 6 -1 2 9 20 22 39 28 19 7 34 18
34 27 0 9 6 13 15 9 9 -3 19 3 25 14 6 11 17 20 24 20 16 0 29 27 21 41 -4 5
0 6 8 3 8 -3 35 15 63 40 65 60 80 59 49 -3 -25 -48 -32 -82 -17 -80 21 4 32
-3 32 -18 0 -14 2 -15 9 -5 6 10 18 8 57 -14 27 -15 59 -35 71 -44 13 -10 40
-21 60 -25 45 -8 132 -96 134 -135 6 -97 1 -122 -31 -166 -18 -25 -36 -41 -42
-38 -8 5 -9 1 -5 -11 4 -9 2 -24 -5 -32 -9 -11 -8 -20 4 -41 24 -40 29 -142 7
-142 -8 0 -10 15 -7 44 5 42 4 45 -24 57 -33 14 -49 38 -45 71 2 19 -3 24 -28
26 -16 2 -48 -2 -70 -9 l-40 -12 30 -10 c53 -17 81 -51 96 -114 6 -28 4 -33
-12 -33 -10 0 -19 7 -19 15 0 8 -11 22 -25 31 -30 20 -42 53 -24 65 12 8 11
11 -1 19 -21 14 -74 12 -88 -2 -10 -10 -14 -8 -18 10 -4 12 -13 22 -21 22 -9
0 -13 6 -10 13 4 10 -1 13 -16 10 -28 -6 -70 33 -64 58 6 23 -22 33 -68 25
-38 -8 -105 -75 -105 -106 0 -22 -12 -25 -41 -9 -26 13 -49 5 -91 -31 -18 -16
-39 -30 -46 -30 -8 0 -12 -6 -9 -12 2 -7 16 -12 31 -10 34 4 35 -19 1 -44 -18
-13 -25 -28 -25 -51 0 -36 2 -38 30 -23 25 13 32 -1 17 -34 -14 -29 -20 -32
-39 -13 -13 14 -88 15 -128 2 -22 -7 -50 -58 -50 -91 0 -17 4 -22 15 -18 10 4
15 0 15 -11 0 -30 -23 -95 -33 -95 -5 0 -7 -6 -4 -14 7 -17 -13 -86 -24 -86
-17 0 -21 50 -7 73 12 17 12 31 4 64 -10 38 -17 46 -63 69 -29 14 -59 24 -65
21 -9 -3 -6 -8 7 -13 29 -12 70 -52 62 -61 -4 -4 -33 -2 -64 5 -56 12 -80 8
-54 -7 9 -6 0 -11 -28 -16 -27 -4 -47 -3 -55 5 -8 6 -27 13 -43 15 -27 4 -27
4 -5 -7 12 -6 22 -18 22 -26 0 -16 29 -14 175 13 44 8 82 15 85 15 3 0 4 -29
2 -63 -4 -60 -2 -66 27 -99 18 -21 29 -42 26 -51 -4 -10 2 -16 19 -19 14 -3
27 0 29 6 7 21 37 -16 37 -45 0 -27 -11 -35 -42 -30 -19 3 -5 -21 30 -54 23
-22 47 -35 65 -35 18 0 27 -5 27 -16 0 -12 -3 -14 -12 -6 -7 5 -27 13 -45 16
-17 4 -37 14 -44 22 -6 8 -27 14 -45 14 -33 0 -34 1 -29 30 4 21 0 36 -11 47
-8 9 -13 24 -11 34 5 20 -8 26 -18 9 -4 -6 -14 -10 -23 -9 -10 1 -30 -3 -45
-9 -16 -7 -33 -12 -38 -12 -5 0 -9 -4 -9 -10 0 -5 -5 -10 -11 -10 -7 0 -9 10
-7 24 4 18 0 26 -14 29 -10 3 -15 1 -12 -4 3 -5 -17 -8 -46 -7 -28 1 -54 6
-56 10 -3 4 2 8 10 8 9 0 16 5 16 10 0 6 -23 10 -52 10 l-51 0 19 22 c10 12
13 18 7 14 -18 -10 -85 4 -80 18 3 7 -10 10 -40 7 -31 -2 -48 1 -54 10 -5 8
-9 9 -9 3 0 -13 -179 -7 -194 6 -7 7 74 50 94 50 4 0 18 8 31 18 13 11 37 22
52 26 15 4 25 11 22 16 -3 6 5 10 19 10 14 0 26 4 26 8 0 13 -169 52 -223 52
-35 0 -47 4 -47 15 0 10 -10 15 -27 15 l-28 1 28 24 c16 14 41 25 57 25 41 0
49 20 8 21 -31 1 -30 2 9 8 53 9 78 31 97 89 24 68 21 111 -7 121 -13 5 -29
16 -36 25 -7 9 -22 16 -32 16 -10 0 -21 4 -24 10 -3 5 -24 10 -45 10 -21 0
-41 4 -44 9 -4 5 -28 14 -54 20 -176 41 -267 74 -267 98 0 6 -3 15 -7 19 -5 4
-8 36 -8 71 0 43 -4 63 -12 64 -10 0 -10 2 0 6 15 6 16 43 1 43 -7 0 -9 11 -6
29 4 19 -1 44 -13 70 -11 22 -20 45 -20 51 0 6 -7 22 -16 36 -9 13 -14 28 -10
32 4 3 11 0 16 -8 5 -8 11 -12 14 -9 11 10 -25 48 -39 42 -10 -3 -20 6 -30 29
-8 19 -26 43 -41 53 -19 12 -23 19 -14 25 9 5 9 9 1 14 -7 5 -9 26 -5 59 8 66
-11 200 -32 232 -9 14 -13 25 -9 25 4 0 2 7 -5 15 -6 8 -20 45 -30 82 -36 131
-41 140 -82 154 -21 6 -35 17 -31 22 4 7 -1 8 -13 3 -33 -14 -74 -25 -74 -20
0 2 14 13 32 24 29 17 34 18 61 4 16 -9 47 -17 69 -18 34 -3 42 1 56 24 10 15
22 25 28 23 6 -2 23 6 37 17 19 15 26 28 22 43 -6 24 9 56 21 45 6 -7 17 1 42
34 10 13 11 22 2 38 -10 18 -9 22 9 27 14 3 21 13 21 29 0 13 5 24 10 24 6 0
10 18 10 40 0 39 11 67 38 102 10 12 11 21 2 37 -8 15 -8 27 0 42 18 33 5 46
-55 59 -47 10 -54 14 -44 26 9 11 9 14 0 14 -7 0 -9 5 -6 10 3 6 2 10 -4 10
-16 0 -25 48 -12 64 10 11 7 18 -11 30 -29 20 -67 20 -97 0 -21 -15 -24 -15
-42 5 -17 18 -28 21 -70 17 -27 -3 -54 -8 -59 -11 -16 -10 -12 13 7 42 17 25
17 26 -6 18 -16 -5 -21 -4 -17 4 11 17 15 109 6 139 -7 22 -9 23 -10 7 -1 -11
-4 -33 -5 -50 -14 -141 -13 -196 1 -202 13 -5 13 -7 2 -14 -10 -7 -9 -9 4 -9
26 0 31 -18 8 -30 -18 -10 -22 -8 -27 8 -2 11 -20 28 -38 38 -28 15 -37 16
-63 5 -20 -8 -29 -18 -25 -27 3 -8 -6 -25 -21 -39 -14 -13 -26 -22 -26 -19 0
3 -15 -6 -32 -21 -42 -35 -50 -65 -24 -86 18 -14 18 -19 7 -33 -8 -9 -21 -14
-31 -11 -14 4 -16 0 -12 -27 2 -18 10 -40 17 -48 7 -8 15 -26 17 -40 2 -16 11
-26 26 -30 24 -5 27 -26 3 -23 -10 1 -12 -10 -9 -49 3 -27 1 -45 -3 -41 -5 5
-11 31 -13 59 -2 27 -8 60 -13 74 -13 38 -51 108 -64 116 -8 5 -8 8 1 14 16
10 20 61 6 74 -6 6 -24 12 -41 14 -30 3 -61 22 -37 22 7 0 12 5 12 10 0 6 -5
10 -10 10 -20 0 -52 37 -40 45 8 5 2 14 -17 26 -23 16 -25 19 -8 19 18 0 18 1
-3 16 -12 8 -22 21 -22 27 -1 7 -15 23 -32 37 -17 14 -42 37 -57 51 -14 14
-35 31 -46 37 l-20 11 20 1 c11 0 47 -5 80 -10 33 -5 86 -12 117 -15 32 -3 69
-10 84 -15 32 -13 37 -12 29 0 -8 13 8 13 22 -1 5 -5 27 -12 49 -15 21 -3 53
-16 72 -30 33 -26 51 -27 36 -2 -5 7 -9 31 -10 53 -1 22 -8 41 -14 43 -8 3 -8
7 -2 11 7 5 19 109 22 194 0 4 6 7 14 7 9 0 16 12 18 28 2 19 8 27 21 26 10
-1 17 5 17 17 0 11 4 19 9 19 16 0 42 81 48 148 5 53 8 62 18 49 6 -9 17 -42
25 -74 7 -32 19 -73 27 -90 7 -18 13 -36 12 -39 0 -4 6 -11 15 -16 9 -5 16
-15 16 -23 0 -8 9 -19 20 -25 11 -6 20 -17 20 -25 0 -7 6 -16 13 -18 9 -4 8
-8 -3 -16 -12 -9 -11 -11 8 -11 20 0 22 -4 16 -22 -8 -23 -8 -35 -3 -74 3 -19
7 -20 34 -13 47 13 154 19 160 8 7 -10 68 -12 102 -3 13 4 21 10 18 14 -3 5 4
11 15 15 11 3 20 10 20 15 0 5 14 11 31 15 39 9 69 34 69 57 0 10 4 18 9 18 5
0 12 8 15 18 4 9 13 28 20 42 8 14 17 39 19 57 3 17 9 38 13 45 4 7 7 25 6 40
-2 19 2 28 13 28 16 0 19 21 16 105 -3 71 17 46 25 -32z m1294 11 c0 -14 11
-53 24 -87 13 -34 27 -76 31 -93 5 -27 3 -32 -16 -37 -25 -7 -49 8 -49 29 0 7
-5 16 -12 20 -8 5 -9 -4 -4 -34 l6 -42 -34 0 c-40 0 -41 3 -51 140 l-7 95 44
16 c61 23 68 23 68 -7z m-394 -25 c1 -9 9 -41 17 -70 9 -30 19 -76 23 -102 l6
-48 38 6 c32 5 39 3 43 -12 2 -10 3 5 0 32 -2 28 -12 78 -21 112 -9 34 -13 65
-10 68 3 3 21 8 41 12 l35 5 16 -70 c9 -39 16 -82 16 -96 0 -28 17 -33 50 -16
21 11 24 8 34 -31 6 -26 4 -27 -64 -43 -38 -8 -76 -13 -84 -10 -8 3 -17 1 -21
-5 -3 -6 -17 -11 -31 -11 -19 0 -24 -4 -21 -17 14 -52 16 -72 6 -78 -12 -8 -4
-56 16 -95 16 -32 63 -204 75 -272 4 -29 11 -66 15 -81 4 -15 3 -27 -1 -25
-22 6 -219 -77 -293 -124 -56 -35 -66 -35 -67 0 0 15 -4 43 -8 63 -7 34 -6 37
21 43 15 4 43 14 61 23 31 15 32 18 32 74 0 44 4 61 15 65 23 9 38 -9 59 -65
10 -28 20 -51 22 -51 3 0 23 12 45 27 25 16 38 32 35 40 -4 11 0 13 14 8 11
-4 20 -4 20 0 0 10 -39 82 -65 121 -14 20 -25 43 -25 51 0 11 -64 157 -76 171
-1 2 -10 -1 -21 -6 -10 -6 -52 -16 -93 -22 -115 -18 -126 -23 -122 -51 2 -13
8 -28 12 -34 11 -13 27 -111 34 -200 l5 -70 -18 85 c-10 47 -28 135 -40 195
-28 147 -42 214 -51 250 l-7 30 -8 -30 c-4 -16 -11 -46 -16 -66 -6 -25 -16
-39 -32 -43 -50 -13 -56 -9 -78 65 -19 64 -20 76 -9 130 l13 60 36 -3 c32 -3
39 -9 64 -53 23 -40 27 -44 22 -20 -16 76 -17 85 -9 86 5 0 20 2 34 5 14 2 48
4 75 5 36 1 44 4 30 10 -11 4 -33 8 -48 8 -17 1 -26 5 -22 11 4 6 15 8 26 5
11 -4 19 -2 19 4 0 6 -6 12 -12 12 -7 1 1 5 17 10 23 6 15 7 -33 6 -34 -1 -62
1 -62 6 0 4 24 7 53 7 28 1 90 7 137 15 103 16 132 15 136 -6z m-611 -85 c-10
-8 -16 -16 -13 -19 9 -10 37 6 41 23 3 15 5 15 12 -2 10 -22 -8 -36 -47 -36
-16 0 -28 -5 -28 -11 0 -7 9 -9 23 -5 12 4 38 10 58 13 l36 5 -1 -37 c-1 -29
-7 -40 -24 -46 -28 -11 -29 -23 0 -14 17 6 20 4 15 -9 -5 -12 0 -16 19 -16 25
0 25 -1 24 -82 -1 -48 5 -110 15 -148 54 -217 70 -300 59 -300 -14 0 -19 14
-30 75 -4 22 -8 43 -11 47 -5 10 -53 -13 -53 -25 0 -5 -7 -7 -15 -4 -24 10
-25 -5 -3 -90 18 -74 23 -83 52 -94 44 -19 101 -59 98 -70 -1 -6 2 -18 6 -27
5 -9 12 -30 16 -45 l7 -29 -57 8 c-55 6 -94 27 -94 49 0 7 -12 40 -26 76 -93
227 -151 420 -161 534 -4 52 -9 73 -14 60 -19 -49 -8 21 14 83 l22 66 5 -47
c9 -75 23 -68 17 9 -5 59 -2 76 14 103 11 19 24 29 31 25 7 -5 5 -11 -7 -20z
m-1480 -123 c57 -26 78 -54 81 -106 2 -39 -2 -50 -31 -81 l-34 -36 -75 4 c-63
3 -79 7 -101 28 -33 30 -55 72 -55 101 0 27 45 87 74 99 35 15 99 11 141 -9z
m3563 -52 c35 -5 71 -13 80 -18 21 -11 94 -17 107 -9 22 13 285 -36 285 -52 0
-5 -15 -7 -32 -5 -18 3 -27 2 -19 -1 11 -5 11 -8 0 -15 -9 -5 8 -17 53 -38 36
-17 73 -31 80 -31 8 0 23 -7 34 -15 16 -12 17 -14 2 -15 -9 0 -18 4 -20 9 -1
5 -20 13 -41 16 -37 7 -39 6 -36 -16 3 -34 -10 -94 -37 -166 l-24 -63 33 0
c43 0 48 -5 35 -42 -10 -28 -12 -29 -51 -22 -37 6 -40 5 -29 -9 8 -10 9 -17 3
-21 -6 -4 -8 -12 -5 -19 2 -7 -7 -19 -20 -27 -27 -14 -42 -61 -34 -105 3 -14
-1 -30 -8 -36 -8 -6 -14 -28 -14 -49 0 -21 -7 -70 -16 -109 -18 -77 -11 -101
28 -101 11 0 31 -9 45 -20 17 -13 21 -20 11 -20 -9 0 -21 6 -27 14 -7 8 -23
13 -36 11 -14 -1 -22 2 -18 8 3 5 0 8 -8 5 -8 -3 -15 -15 -15 -27 -1 -12 -4
-25 -8 -29 -4 -3 -80 -7 -169 -9 -89 -1 -182 -5 -207 -7 -25 -3 -56 -1 -70 6
-99 44 -118 58 -71 55 16 -1 29 -6 28 -12 -1 -5 9 -10 23 -11 l25 -1 -25 5
c-23 4 -24 5 -5 12 17 7 17 9 3 9 -10 1 -18 9 -18 19 0 9 -3 28 -7 41 -5 20
-3 23 10 18 10 -4 17 -2 17 3 0 6 -11 10 -24 10 -14 0 -28 5 -32 11 -4 7 3 10
19 7 19 -2 39 11 87 56 60 58 61 60 70 130 23 182 32 231 41 234 5 2 9 11 9
20 0 12 -3 13 -8 5 -5 -9 -21 -7 -62 7 -74 25 -78 21 -81 -73 -1 -20 -5 -40
-10 -42 -4 -3 -11 -26 -15 -50 -3 -25 -11 -42 -16 -39 -6 4 -8 -7 -5 -27 3
-19 2 -42 -2 -52 -7 -18 -8 -18 -21 -2 -12 15 -12 25 6 76 12 32 18 59 15 60
-3 0 -26 2 -51 3 l-46 3 -17 -74 c-18 -83 -18 -84 55 -195 18 -27 15 -58 -4
-58 -6 0 -9 -14 -6 -32 9 -54 1 -60 -44 -37 -25 13 -44 32 -51 49 -10 27 -13
28 -61 24 -56 -5 -52 1 7 11 66 11 95 58 61 101 -15 19 -15 18 -9 -3 5 -17 2
-22 -14 -20 -11 0 -17 5 -15 9 3 4 -11 15 -30 25 -20 9 -36 23 -36 30 0 16
-34 17 -61 3 -13 -7 -19 -7 -19 0 0 5 4 10 10 10 5 0 14 17 19 38 5 20 24 94
42 165 18 70 34 126 36 123 2 -2 -12 -68 -32 -146 -20 -79 -34 -149 -31 -155
2 -7 26 -15 53 -17 26 -3 55 -8 64 -12 14 -6 17 10 23 136 7 147 30 338 45
373 5 11 14 34 20 50 12 32 97 128 140 158 18 12 36 16 56 12 17 -4 58 -11 93
-16z m650 -263 c4 -20 -35 -153 -51 -174 -12 -16 -7 -22 29 -28 36 -7 35 -5
25 -40 -5 -17 -14 -28 -22 -25 -8 2 -39 10 -71 18 l-56 15 10 31 c21 68 28 94
45 160 l17 68 36 -3 c25 -2 36 -8 38 -22z m-1296 -91 c49 -51 54 -72 33 -139
-17 -52 -17 -100 0 -171 5 -21 4 -27 -3 -20 -6 6 -18 40 -26 75 -8 36 -28 117
-45 180 -17 63 -31 121 -31 129 0 17 15 5 72 -54z m1506 40 c1 -1 -2 -14 -7
-27 -5 -14 -17 -67 -26 -117 -10 -50 -21 -94 -26 -97 -5 -3 -19 -2 -30 1 -18
6 -20 12 -14 41 8 45 -10 44 -25 -1 -13 -40 -17 -41 -47 -17 -21 17 -21 18 -4
57 10 22 31 71 46 108 l28 68 51 -6 c28 -4 52 -8 54 -10z m-2353 -502 c15 -36
15 -37 -11 -58 -17 -14 -25 -28 -21 -37 3 -9 0 -21 -6 -27 -14 -14 6 -31 36
-31 9 0 17 -6 17 -14 0 -8 7 -17 16 -20 14 -5 16 -1 11 24 -6 28 -4 30 22 30
23 0 30 -5 34 -27 7 -37 -5 -47 -58 -47 -31 0 -45 -4 -45 -14 0 -26 -18 -2
-24 33 -4 19 -13 38 -20 42 -11 7 -76 133 -76 148 0 9 62 34 87 35 17 0 27
-10 38 -37z m314 -295 c1 -18 -14 -25 -22 -10 -2 4 -3 2 -1 -4 1 -5 -7 -21
-17 -35 -19 -24 -26 -16 -10 11 17 26 -1 31 -24 6 -17 -18 -26 -21 -34 -13 -8
8 -11 5 -11 -10 0 -26 -16 -38 -26 -21 -5 7 -10 4 -16 -12 l-8 -23 -27 24
c-22 20 -25 21 -19 5 6 -16 3 -18 -26 -12 -26 4 -29 3 -15 -5 9 -6 15 -14 12
-20 -8 -12 -65 -12 -65 0 0 5 -7 12 -16 15 -12 5 -14 1 -8 -16 6 -20 5 -21
-10 -9 -9 7 -15 19 -15 25 1 6 0 18 -4 26 -3 8 -7 27 -10 42 l-4 27 61 -6 c34
-3 65 -9 71 -14 14 -14 37 -11 29 4 -6 10 -4 10 7 0 7 -7 16 -13 19 -13 11 0
10 59 -1 65 -5 4 -14 16 -20 28 -8 18 -5 16 15 -6 14 -15 26 -34 26 -42 0 -8
10 -19 21 -26 14 -7 19 -7 15 0 -4 6 3 29 14 52 23 45 37 48 20 4 -16 -42 -8
-39 35 12 l40 47 12 -39 c6 -22 12 -48 12 -57z m1221 -180 c0 -10 7 -18 15
-18 10 0 14 -10 13 -34 -1 -31 -4 -34 -27 -33 -22 2 -26 7 -23 30 3 20 0 26
-11 21 -9 -3 -12 -14 -9 -29 3 -20 1 -23 -17 -18 -12 3 -21 12 -21 19 0 8 -4
14 -10 14 -5 0 -10 -10 -10 -22 -1 -21 -2 -21 -11 -5 -5 9 -17 17 -25 17 -12
0 -14 7 -9 30 6 26 4 30 -15 30 -18 0 -19 -3 -10 -21 14 -24 9 -32 -14 -23 -9
3 -16 14 -16 23 0 23 16 45 28 37 6 -3 13 -2 17 3 6 10 65 -5 75 -19 3 -4 20
-9 38 -12 27 -4 32 -2 26 11 -3 9 -8 25 -11 36 -4 20 -4 20 11 1 9 -11 16 -28
16 -38z m-58 -151 c0 -26 3 -47 5 -47 3 0 18 11 35 25 35 30 59 33 34 6 -10
-11 -15 -24 -12 -30 9 -14 -15 -61 -31 -61 -7 0 -13 -4 -13 -10 0 -5 -7 -10
-15 -10 -8 0 -15 7 -15 16 0 8 -4 13 -10 9 -5 -3 -7 -12 -4 -20 5 -11 -2 -13
-28 -11 -47 5 -92 27 -76 38 10 6 10 8 0 8 -16 0 -36 19 -45 42 -4 12 -2 15 9
11 7 -3 14 0 14 6 0 6 -4 11 -10 11 -13 0 -13 30 0 50 7 12 17 9 55 -18 26
-18 43 -27 39 -20 -4 7 2 4 14 -6 24 -21 28 -16 11 16 -6 11 -8 22 -6 25 3 3
12 -8 21 -24 l16 -28 -6 45 c-5 34 -4 42 5 34 6 -6 12 -32 13 -57z m-302 -102
c104 -36 262 -96 270 -102 2 -2 0 -7 -6 -11 -26 -18 -31 -57 -17 -130 14 -72
14 -75 -8 -98 -12 -13 -24 -23 -28 -22 -3 0 -17 -3 -29 -7 -18 -6 -20 -10 -10
-16 10 -7 10 -9 -2 -9 -8 0 -25 3 -37 6 -19 5 -21 9 -11 28 6 11 14 23 18 26
4 3 17 24 29 48 12 23 25 42 30 42 5 0 11 9 14 20 3 11 2 20 -1 20 -16 -1 -32
-20 -74 -90 -42 -69 -49 -75 -82 -78 -42 -4 -44 1 -15 31 28 29 79 140 79 172
0 14 -9 42 -20 62 -14 26 -16 39 -8 44 26 16 -176 85 -214 73 -14 -4 -18 -2
-14 5 4 6 2 11 -3 11 -6 0 -11 5 -11 10 0 13 33 6 150 -35z m-59 -56 c35 -12
71 -28 79 -37 13 -13 13 -14 -5 -7 -57 22 -106 37 -110 33 -9 -8 41 -142 55
-146 9 -3 11 1 7 12 -5 14 -3 15 13 6 29 -16 73 -13 67 4 -4 10 -1 13 9 9 9
-3 14 2 14 17 0 11 5 18 10 15 27 -16 -13 -125 -67 -183 -24 -26 -29 -27 -121
-27 -81 0 -101 3 -123 20 -47 35 -76 105 -45 105 23 0 85 40 97 63 11 20 12
20 29 -3 9 -13 15 -31 13 -41 -6 -23 -23 -25 -23 -4 0 18 -26 20 -36 3 -4 -7
-3 -8 4 -4 7 4 12 1 12 -8 0 -8 6 -16 13 -19 6 -2 9 -7 5 -11 -3 -4 -16 -3
-27 4 -12 6 -21 7 -21 1 0 -12 42 -22 109 -27 52 -3 53 -2 36 16 -9 10 -14 23
-11 29 3 5 1 11 -6 13 -6 2 -17 20 -23 39 -8 22 -18 33 -28 31 -14 -2 -16 6
-15 50 2 79 -3 77 89 47z m336 -520 c50 -19 121 -60 174 -102 20 -16 108 -144
121 -177 13 -33 16 -170 4 -170 -6 0 -5 -5 2 -12 7 -7 12 -26 12 -42 0 -28 -1
-29 -16 -15 -14 15 -20 14 -66 -9 -27 -13 -52 -31 -55 -38 -3 -8 -15 -14 -27
-14 -12 0 -27 -5 -34 -12 -8 -8 -15 -8 -24 -1 -7 6 -48 10 -91 9 -62 -1 -76 2
-72 13 3 7 1 19 -5 26 -7 8 -4 17 10 30 27 25 25 32 -11 40 -17 4 -33 13 -36
21 -4 11 -8 12 -20 3 -10 -9 -20 -9 -36 -1 -12 5 -30 13 -39 16 -11 3 -15 11
-12 21 5 11 -1 15 -24 15 -28 0 -31 3 -37 43 -4 23 -11 50 -16 59 -6 10 -5 19
1 23 6 4 7 11 4 17 -5 7 -2 9 8 6 8 -4 21 -2 29 2 11 7 9 10 -6 16 -30 11 -36
27 -17 47 14 16 14 19 2 27 -11 7 -11 10 -2 10 7 0 17 11 23 24 10 21 7 28
-21 54 l-32 31 33 21 c33 19 33 20 9 21 -23 0 -23 1 -5 9 11 5 64 9 117 9 76
1 110 -4 155 -20z m-2850 -209 c29 -11 45 -32 58 -77 9 -34 -28 -109 -67 -133
-48 -29 -118 -27 -147 4 -52 55 -28 156 47 195 43 23 67 25 109 11z m543 -329
c0 -11 -55 -31 -85 -31 -12 0 -32 -12 -46 -26 -13 -14 -45 -40 -71 -56 -26
-17 -45 -34 -43 -39 7 -10 -37 1 -52 14 -14 10 -17 75 -5 94 15 24 64 42 89
32 31 -12 116 -12 129 0 8 8 35 16 72 20 6 0 12 -3 12 -8z"/>
<path d="M1646 3519 c-53 -28 -111 -84 -131 -125 -15 -31 -14 -92 1 -146 6
-19 -13 -82 -31 -108 -5 -8 -16 -25 -23 -37 -11 -20 -10 -23 8 -23 13 0 18 5
14 15 -4 8 -1 16 5 16 6 1 16 3 21 4 6 1 15 3 21 4 5 0 8 5 4 10 -3 5 3 16 12
23 12 8 18 28 19 53 3 85 8 115 21 115 7 0 13 9 13 21 0 47 93 137 177 170 26
10 27 12 8 19 -36 15 -99 10 -139 -11z"/>
<path d="M1909 3083 c-9 -83 -4 -176 12 -223 9 -30 19 -73 21 -95 3 -40 3 -40
-34 -41 -45 -2 -111 -37 -159 -85 -59 -58 -47 -65 143 -85 35 -3 36 -3 29 24
-4 15 -6 44 -3 65 4 40 8 42 75 38 34 -3 37 -1 37 24 0 28 -22 77 -77 168 -34
56 -34 59 -28 131 5 50 4 76 -4 80 -6 4 -11 4 -12 -1z"/>
<path d="M1271 2429 c-14 -40 -14 -69 -1 -69 6 0 10 -8 10 -19 0 -25 48 -44
96 -37 l39 6 -30 -15 c-16 -8 -25 -15 -20 -15 6 -1 0 -5 -12 -10 -12 -5 -29
-20 -38 -34 -17 -25 -16 -27 29 -93 25 -38 61 -90 81 -118 55 -77 79 -125 61
-125 -8 0 -17 -6 -20 -12 -5 -10 -7 -10 -12 -1 -4 8 -13 9 -30 2 -34 -12 -34
-13 -35 19 -1 18 -3 21 -6 9 -3 -10 3 -37 12 -60 16 -39 44 -140 45 -161 0 -6
-7 -1 -15 10 -13 17 -14 10 -15 -73 0 -68 4 -95 15 -107 8 -8 15 -21 15 -28 0
-13 70 -52 78 -44 2 3 -3 15 -11 28 -9 12 -20 52 -27 88 -6 36 -13 75 -15 88
-8 34 16 28 114 -27 47 -26 97 -52 110 -56 29 -9 101 -73 101 -90 0 -21 35
-45 66 -45 16 0 52 -6 79 -14 28 -7 66 -12 85 -11 19 1 64 -6 100 -16 65 -17
140 -22 140 -8 0 4 -9 11 -21 14 -16 5 -18 10 -8 21 8 10 8 14 0 14 -6 0 -11
6 -11 13 0 8 -11 20 -25 27 -14 7 -25 17 -25 22 0 4 -15 14 -32 23 -34 15 -69
36 -78 46 -3 3 -21 11 -40 19 -64 25 -151 92 -137 106 13 14 290 -140 310
-173 5 -7 12 -11 18 -8 5 4 -1 25 -15 48 -13 23 -23 52 -22 64 2 17 -1 20 -9
13 -7 -6 -21 -7 -31 -3 -18 6 -18 6 0 -15 24 -27 13 -28 -24 -2 -15 11 -31 16
-35 12 -5 -4 -5 -2 -1 5 6 11 -7 21 -99 81 -11 7 -32 18 -47 25 -16 6 -28 17
-28 23 0 6 -13 17 -30 24 -16 7 -30 18 -30 24 0 6 -18 22 -40 36 -26 16 -40
32 -40 46 0 12 -10 26 -24 34 -37 19 -40 40 -11 69 20 21 27 23 34 12 7 -11
41 -13 182 -8 96 4 176 6 179 7 3 0 -2 5 -10 10 -11 7 -7 10 18 10 31 0 44
-14 20 -23 -7 -2 -3 -2 10 0 21 3 35 -2 72 -26 13 -9 12 -12 -3 -24 -18 -12
-18 -14 -1 -28 16 -12 17 -12 11 4 -9 24 22 36 38 14 20 -27 26 -20 19 24 -7
39 -6 41 14 30 28 -15 35 -14 29 3 -5 12 5 16 41 18 l47 3 -105 34 c-58 19
-123 38 -145 42 -22 4 -96 22 -164 40 -100 26 -137 41 -187 75 -83 57 -136 84
-216 110 -65 21 -67 21 -117 3 -53 -18 -64 -16 -33 7 16 12 15 13 -5 14 -14 0
-21 5 -17 13 3 9 -20 22 -75 41 -58 20 -78 32 -74 42 3 8 3 14 0 14 -3 0 -10
-14 -16 -31z"/>
<path d="M1790 2455 c0 -5 25 -35 76 -92 38 -41 84 -51 160 -33 46 11 54 17
54 37 0 55 45 11 55 -54 4 -26 9 -51 11 -55 2 -3 20 8 39 25 19 17 31 33 26
36 -5 3 -12 25 -16 48 -5 30 -10 40 -21 36 -8 -3 -14 0 -14 7 0 8 -9 10 -27 6
-16 -3 -59 1 -98 9 -166 33 -245 43 -245 30z"/>
<path d="M2922 2380 c-12 -11 -24 -20 -26 -20 -9 0 -46 -34 -46 -42 0 -5 15
-8 34 -8 18 0 53 -7 77 -16 77 -27 124 -27 156 0 l28 24 -30 8 c-16 4 -43 18
-58 31 -16 12 -42 23 -58 23 -16 0 -29 5 -29 10 0 17 -25 11 -48 -10z"/>
<path d="M4050 3705 c0 -8 -6 -15 -12 -16 -7 0 -1 -5 15 -11 30 -11 35 -25 12
-34 -8 -4 -15 -15 -15 -25 0 -10 -7 -19 -15 -19 -8 0 -15 -6 -15 -14 0 -8 -6
-17 -12 -19 -7 -3 -1 -6 15 -6 18 -1 27 -6 27 -17 0 -20 -57 -121 -71 -126 -6
-2 -7 -11 -3 -21 4 -10 13 -16 21 -13 8 3 11 1 8 -4 -3 -6 -13 -10 -21 -10
-22 0 -16 -17 9 -23 12 -2 31 -8 41 -12 14 -6 17 -5 12 3 -4 8 0 12 10 12 14
0 15 3 6 12 -10 10 -15 10 -22 -2 -7 -12 -12 -12 -22 -2 -9 9 -8 12 8 12 15 0
16 2 4 10 -8 5 -11 12 -7 17 5 4 11 3 15 -2 12 -18 56 -32 80 -26 12 3 31 20
42 36 31 47 23 54 -13 11 -34 -40 -55 -44 -95 -18 -24 16 5 141 44 195 19 26
41 47 49 47 28 0 64 -30 58 -47 -4 -11 -2 -14 5 -9 7 4 12 26 12 49 0 36 -4
44 -27 55 -15 6 -39 12 -54 12 -15 0 -31 5 -34 10 -10 16 -55 12 -55 -5z"/>
<path d="M4150 3210 c0 -37 -36 -171 -48 -179 -5 -3 -12 -13 -15 -21 -11 -29
-7 23 7 88 7 34 10 62 6 62 -12 0 -23 -57 -25 -135 -4 -103 -3 -99 -20 -85
-19 16 -32 6 -32 -25 0 -13 4 -22 9 -19 5 3 7 12 4 20 -5 14 5 19 17 8 8 -8
-20 -76 -36 -86 -6 -4 -8 -10 -4 -15 5 -4 12 -1 17 6 6 10 21 12 57 8 27 -3
56 -2 63 3 10 6 23 1 41 -16 36 -34 75 -44 124 -29 22 6 45 10 51 8 6 -2 14
13 17 34 5 28 2 42 -10 53 -14 13 -15 13 -10 -2 9 -24 -2 -23 -48 9 -44 29
-56 43 -49 55 8 12 -13 10 -51 -7 -20 -8 -39 -25 -45 -40 -9 -24 -30 -35 -30
-15 0 6 4 10 10 10 5 0 12 11 16 24 3 13 15 29 27 35 20 11 20 11 -6 6 -53
-10 -43 42 11 59 12 4 22 11 22 16 0 5 3 15 6 24 3 9 1 16 -5 16 -6 0 -11 -9
-11 -20 0 -11 -4 -20 -9 -20 -5 0 -8 24 -6 53 4 61 7 75 23 104 11 19 9 22
-20 32 -45 16 -48 14 -48 -19z"/>
<path d="M4269 3195 c18 -8 40 -15 47 -15 8 0 14 -4 14 -9 0 -5 -9 -7 -20 -4
-16 4 -19 2 -14 -11 4 -11 1 -16 -10 -16 -9 0 -16 -3 -17 -7 -9 -129 -17 -150
-51 -132 -12 6 -25 6 -38 -1 -26 -14 -26 -30 0 -23 11 3 17 9 14 14 -6 11 -1
11 20 3 9 -3 14 -9 12 -13 -2 -3 15 -6 39 -7 24 0 56 -9 70 -18 15 -10 28 -16
30 -14 16 16 30 248 16 248 -6 0 -13 -4 -16 -10 -4 -6 -14 -5 -28 4 -12 8 -40
17 -62 20 l-40 6 34 -15z"/>
<path d="M3974 1536 c-12 -11 -34 -29 -48 -39 -29 -20 -26 -37 6 -37 17 0 18
-3 8 -15 -6 -8 -9 -23 -5 -35 4 -12 2 -27 -4 -34 -10 -12 -1 -110 13 -123 12
-12 19 7 7 21 -8 9 -8 16 -2 20 6 4 8 20 4 36 -3 17 -2 30 3 30 20 -1 33 -17
39 -53 6 -28 12 -37 29 -39 31 -2 38 -1 69 7 17 5 27 3 27 -4 0 -18 -42 -61
-53 -54 -5 3 -8 0 -6 -6 3 -7 8 -12 12 -12 4 1 16 1 27 1 11 0 20 7 20 15 0 8
9 15 21 15 13 0 18 4 13 12 -4 7 -3 8 4 4 16 -9 4 -33 -19 -39 -13 -4 -19 -13
-18 -34 0 -15 3 -23 5 -16 3 7 11 10 17 8 27 -10 46 20 40 63 -4 27 -10 39
-17 35 -6 -4 -3 3 7 14 9 11 17 25 17 31 0 7 12 12 26 12 22 0 25 -2 14 -15
-10 -12 -9 -15 5 -15 15 0 16 7 11 48 -4 26 -9 68 -12 95 l-6 47 -40 0 c-48 0
-76 14 -87 43 -6 16 -17 22 -42 23 -19 0 -41 3 -49 6 -8 3 -25 -4 -36 -16z"/>
<path d="M5682 6023 c-37 -21 -102 -80 -102 -94 0 -21 37 -49 56 -43 11 3 14
3 8 -3 -7 -4 -19 -32 -28 -61 -16 -56 -68 -114 -93 -105 -7 3 -12 8 -11 11 0
4 0 10 -1 14 -1 9 -61 -12 -61 -22 0 -4 -11 -11 -25 -14 -27 -7 -65 11 -65 31
0 6 -8 14 -18 17 -9 3 -22 16 -27 28 -6 13 -15 23 -22 23 -6 0 -14 3 -18 7
-11 11 -35 -18 -46 -54 -6 -22 -6 -56 1 -99 9 -55 18 -74 52 -113 61 -70 120
-96 202 -91 38 2 82 13 105 24 52 27 106 92 121 147 7 24 19 48 26 52 8 4 15
28 16 56 3 44 6 50 36 66 20 11 28 20 20 23 -7 3 -1 6 15 6 45 2 29 33 -24 46
-22 5 -30 1 -48 -24 -22 -30 -53 -37 -79 -18 -9 7 -9 13 -1 23 9 11 8 14 -1
14 -7 0 -3 15 12 43 13 23 24 48 24 55 2 34 6 40 25 45 12 3 18 10 14 16 -9
15 -25 14 -63 -6z"/>
<path d="M5430 5916 c-6 -8 -18 -12 -26 -9 -25 9 -54 -26 -54 -66 0 -24 3 -31
9 -23 6 11 13 7 29 -16 23 -31 65 -51 55 -26 -3 8 -11 14 -19 14 -8 0 -14 5
-14 10 0 13 6 13 30 0 16 -8 22 -6 32 10 17 26 28 25 28 -2 0 -21 0 -21 15 -2
9 12 14 14 15 6 0 -7 5 -10 10 -7 16 10 12 23 -9 30 -24 7 -36 36 -19 46 14 9
14 8 -24 32 -33 21 -42 21 -58 3z"/>
<path d="M5531 4181 c-11 -11 -21 -30 -21 -42 0 -39 31 -87 66 -104 37 -17 85
-12 66 7 -13 13 33 78 54 78 20 0 17 21 -7 49 -16 20 -32 26 -79 29 -49 4 -61
1 -79 -17z"/>
<path d="M6440 4147 c0 -42 -43 -110 -53 -84 -3 7 -6 5 -6 -5 -1 -10 -4 -18
-9 -18 -4 0 -15 -22 -25 -49 -15 -44 -19 -48 -43 -43 -19 3 -25 1 -20 -7 4 -6
17 -11 29 -12 12 0 31 -4 42 -8 12 -5 -1 -7 -35 -5 -30 2 -67 3 -82 4 -24 0
-28 4 -28 29 0 16 7 48 15 71 8 23 15 46 15 50 0 12 -60 46 -92 54 -22 5 -25
3 -21 -14 3 -11 9 -20 14 -20 5 0 9 -4 9 -10 0 -5 -8 -6 -17 -3 -13 5 -15 3
-8 -13 4 -10 9 -33 10 -50 1 -16 5 -36 9 -42 4 -7 1 -12 -7 -12 -8 0 -26 -11
-41 -25 -14 -13 -26 -21 -26 -18 0 3 -9 -2 -20 -12 -12 -11 -20 -29 -18 -41 2
-13 -10 -38 -28 -61 -64 -79 -78 -119 -79 -223 0 -88 3 -100 33 -163 58 -119
130 -169 271 -189 75 -11 86 -10 151 10 78 26 166 88 180 130 6 15 15 35 20
44 14 25 12 32 -4 19 -12 -10 -18 -7 -32 14 -17 27 -24 27 -86 9 -12 -4 -18 0
-18 10 0 9 -4 16 -10 16 -5 0 -10 -4 -10 -10 0 -14 -18 -12 -62 7 -22 10 -37
22 -34 29 3 7 -2 18 -10 25 -8 6 -12 20 -9 30 3 10 3 34 -1 53 -5 30 -10 35
-28 31 -33 -8 -47 7 -38 41 5 16 7 44 6 62 -1 28 6 41 41 74 29 27 42 47 40
60 -4 17 0 19 28 12 18 -3 34 -9 37 -13 3 -3 16 -6 30 -6 38 0 57 48 58 147 1
65 -3 91 -18 118 l-19 35 -1 -28z"/>
<path d="M6443 3767 c17 -14 16 -15 -8 -21 -14 -4 -35 -2 -46 4 -23 13 -49 -2
-49 -28 0 -12 3 -13 12 -4 7 7 19 12 27 12 11 0 9 -5 -7 -20 -20 -19 -29 -40
-17 -40 3 0 16 9 28 21 18 17 23 18 25 5 2 -8 -2 -25 -9 -37 -10 -20 -8 -25
17 -45 15 -13 26 -25 24 -28 -8 -7 -60 6 -60 15 0 5 -4 9 -10 9 -5 0 -10 -5
-10 -11 0 -16 71 -42 113 -41 39 0 45 -6 25 -27 -20 -22 18 -6 52 22 35 28 44
80 19 108 -12 14 -16 31 -12 52 4 30 2 33 -34 45 -21 8 -51 16 -68 18 -27 5
-28 4 -12 -9z"/>
<path d="M6190 814 c0 -36 0 -37 35 -31 20 3 33 2 31 -2 -3 -4 8 -5 25 -3 35
5 45 18 29 37 -10 12 -9 15 4 15 10 0 16 -9 16 -25 0 -34 18 -32 23 3 l4 27 2
-27 c1 -26 21 -41 21 -17 0 8 5 8 15 -1 8 -7 15 -10 15 -8 0 3 17 2 39 -2 l38
-7 -1 36 c-1 33 -4 36 -33 39 -30 3 -33 1 -34 -25 -1 -28 -1 -28 -8 -3 -7 24
-11 25 -81 26 -47 1 -78 -3 -82 -10 -6 -8 -8 -8 -8 2 0 6 -11 12 -25 12 -22 0
-25 -4 -25 -36z"/>
<path d="M6430 693 c-74 -25 -129 -73 -155 -137 -32 -77 -17 -186 34 -245 11
-13 18 -27 16 -31 -3 -4 1 -7 8 -7 6 1 34 -9 61 -22 73 -34 165 -28 226 17 73
52 94 92 99 183 4 89 -10 127 -65 182 -52 51 -162 81 -224 60z"/>
</g>
</svg>
